<svg width="128" height="128" viewBox="0 0 128 128" xmlns="http://www.w3.org/2000/svg">
  <defs>
    <linearGradient id="bgGradient" x1="0%" y1="0%" x2="100%" y2="100%">
      <stop offset="0%" style="stop-color:#667eea;stop-opacity:1" />
      <stop offset="100%" style="stop-color:#764ba2;stop-opacity:1" />
    </linearGradient>
    <linearGradient id="iconGradient" x1="0%" y1="0%" x2="100%" y2="100%">
      <stop offset="0%" style="stop-color:#ffffff;stop-opacity:1" />
      <stop offset="100%" style="stop-color:#f8f9fa;stop-opacity:1" />
    </linearGradient>
  </defs>
  
  <!-- Background Circle -->
  <circle cx="64" cy="64" r="64" fill="url(#bgGradient)"/>
  
  <!-- Inner glow -->
  <circle cx="64" cy="64" r="56" fill="none" stroke="rgba(255,255,255,0.2)" stroke-width="2"/>
  
  <!-- Network nodes -->
  <circle cx="64" cy="40" r="8" fill="url(#iconGradient)"/>
  <circle cx="40" cy="64" r="6" fill="url(#iconGradient)"/>
  <circle cx="88" cy="64" r="6" fill="url(#iconGradient)"/>
  <circle cx="64" cy="88" r="8" fill="url(#iconGradient)"/>
  <circle cx="45" cy="45" r="4" fill="url(#iconGradient)"/>
  <circle cx="83" cy="45" r="4" fill="url(#iconGradient)"/>
  <circle cx="45" cy="83" r="4" fill="url(#iconGradient)"/>
  <circle cx="83" cy="83" r="4" fill="url(#iconGradient)"/>
  
  <!-- Connection lines -->
  <line x1="64" y1="40" x2="40" y2="64" stroke="url(#iconGradient)" stroke-width="2" opacity="0.8"/>
  <line x1="64" y1="40" x2="88" y2="64" stroke="url(#iconGradient)" stroke-width="2" opacity="0.8"/>
  <line x1="40" y1="64" x2="64" y2="88" stroke="url(#iconGradient)" stroke-width="2" opacity="0.8"/>
  <line x1="88" y1="64" x2="64" y2="88" stroke="url(#iconGradient)" stroke-width="2" opacity="0.8"/>
  <line x1="45" y1="45" x2="64" y2="40" stroke="url(#iconGradient)" stroke-width="1.5" opacity="0.6"/>
  <line x1="83" y1="45" x2="64" y2="40" stroke="url(#iconGradient)" stroke-width="1.5" opacity="0.6"/>
  <line x1="45" y1="83" x2="64" y2="88" stroke="url(#iconGradient)" stroke-width="1.5" opacity="0.6"/>
  <line x1="83" y1="83" x2="64" y2="88" stroke="url(#iconGradient)" stroke-width="1.5" opacity="0.6"/>
  
  <!-- Central AI brain symbol -->
  <circle cx="64" cy="64" r="12" fill="none" stroke="url(#iconGradient)" stroke-width="2"/>
  <path d="M58,64 L64,58 L70,64 L64,70 Z" fill="url(#iconGradient)"/>
</svg>